<?xml version="1.0" encoding="UTF-8" standalone="no"?><!DOCTYPE svg PUBLIC "-//W3C//DTD SVG 1.1//EN" "http://www.w3.org/Graphics/SVG/1.1/DTD/svg11.dtd"><svg width="100%" height="100%" viewBox="0 0 7660 3411" version="1.1" xmlns="http://www.w3.org/2000/svg" xmlns:xlink="http://www.w3.org/1999/xlink" xml:space="preserve" xmlns:serif="http://www.serif.com/" style="fill-rule:evenodd;clip-rule:evenodd;stroke-linecap:round;stroke-linejoin:round;stroke-miterlimit:1.5;"><rect id="Artboard5" x="0" y="0" width="7659.874" height="3410.315" style="fill:none;"/><g><path d="M4222.549,3218.324l0,106.5c0,29.389 -23.861,53.25 -53.25,53.25l-909.5,0c-29.389,0 -53.25,-23.861 -53.25,-53.25l0,-106.5c0,-29.389 23.861,-53.25 53.25,-53.25l909.5,0c29.389,0 53.25,23.861 53.25,53.25Z" style="fill:#dcfce7;stroke:#186534;stroke-width:4.17px;"/><g transform="matrix(1.256351,0,0,0.968586,2756.755633,2901.829806)"><rect x="392" y="294" width="740.721" height="191" style="fill:#28fefd;fill-opacity:0;fill-rule:nonzero;"/><g transform="matrix(0.795956,0,0,1.032432,79.985387,-9.535135)"><text x="392px" y="335.65px" style="font-family:'HelveticaNeue', 'Helvetica Neue';font-size:58.333px;">cohort_copd_outcomes_extended</text><text x="392px" y="393.983px" style="font-family:'HelveticaNeue', 'Helvetica Neue';font-size:58.333px;">• <tspan x="467px " y="393.983px ">S</tspan>ensitivity-analysis dataset</text><g transform="matrix(58.333333,0,0,58.333333,1214.425,452.316667)"></g><text x="392px" y="452.317px" style="font-family:'HelveticaNeue', 'Helvetica Neue';font-size:58.333px;">• <tspan x="467px " y="452.317px ">S</tspan>OF<tspan x="579.408px 617.208px " y="452.317px 452.317px ">A </tspan>+ Charlson + ICU type</text></g></g></g><g><path d="M4551.763,2701.73l0,101.5c0,28.01 -22.74,50.75 -50.75,50.75l-1258.5,0c-28.01,0 -50.75,-22.74 -50.75,-50.75l0,-101.5c0,-28.01 22.74,-50.75 50.75,-50.75l1258.5,0c28.01,0 50.75,22.74 50.75,50.75Z" style="fill:#dcfce7;stroke:#186534;stroke-width:4.17px;"/><g transform="matrix(1.769365,0,0,0.968586,2525.691065,2373.045798)"><rect x="392" y="294" width="740.721" height="191" style="fill:#28fefd;fill-opacity:0;fill-rule:nonzero;"/><g transform="matrix(0.565175,0,0,1.032432,170.451573,-9.535135)"><text x="392px" y="335.65px" style="font-family:'HelveticaNeue', 'Helvetica Neue';font-size:58.333px;">cohort_copd_outcomes</text><text x="392px" y="393.983px" style="font-family:'HelveticaNeue', 'Helvetica Neue';font-size:58.333px;">• <tspan x="467px " y="393.983px "> </tspan>Primary time-to-in-hospital mortality dataset</text><g transform="matrix(58.333333,0,0,58.333333,1372.916667,452.316667)"></g><text x="392px" y="452.317px" style="font-family:'HelveticaNeue', 'Helvetica Neue';font-size:58.333px;">• <tspan x="467px " y="452.317px ">d</tspan>eath_event + time_to_event_days</text></g></g></g><path d="M5532.496,2205.049l0,80.5c0,22.215 -18.035,40.25 -40.25,40.25l-1461.5,0c-22.215,0 -40.25,-18.035 -40.25,-40.25l0,-80.5c0,-22.215 18.035,-40.25 40.25,-40.25l1461.5,0c22.215,0 40.25,18.035 40.25,40.25Z" style="fill:#dff2ff;stroke:#025985;stroke-width:4.17px;"/><path d="M3861.989,1451.275l0,83.5c0,23.042 -18.708,41.75 -41.75,41.75l-992.5,0c-23.042,0 -41.75,-18.708 -41.75,-41.75l0,-83.5c0,-23.042 18.708,-41.75 41.75,-41.75l992.5,0c23.042,0 41.75,18.708 41.75,41.75Z" style="fill:#dcfce7;stroke:#186534;stroke-width:4.17px;"/><path d="M3869.989,2204.049l0,78.5c0,21.663 -17.587,39.25 -39.25,39.25l-1005.5,0c-21.663,0 -39.25,-17.587 -39.25,-39.25l0,-78.5c0,-21.663 17.587,-39.25 39.25,-39.25l1005.5,0c21.663,0 39.25,17.587 39.25,39.25Z" style="fill:#dcfce7;stroke:#186534;stroke-width:4.17px;"/><path d="M3857.989,1978.768l0,74c0,20.421 -16.579,37 -37,37l-998,0c-20.421,0 -37,-16.579 -37,-37l0,-74c0,-20.421 16.579,-37 37,-37l998,0c20.421,0 37,16.579 37,37Z" style="fill:#dcfce7;stroke:#186534;stroke-width:4.17px;"/><path d="M3862.989,1710.896l0,109.5c0,30.217 -24.533,54.75 -54.75,54.75l-967.5,0c-30.217,0 -54.75,-24.533 -54.75,-54.75l0,-109.5c0,-30.217 24.533,-54.75 54.75,-54.75l967.5,0c30.217,0 54.75,24.533 54.75,54.75Z" style="fill:#dcfce7;stroke:#186534;stroke-width:4.17px;"/><g><path d="M4190.383,1000.315l0,72c0,19.869 -16.131,36 -36,36l-1532,0c-19.869,0 -36,-16.131 -36,-36l0,-72c0,-19.869 16.131,-36 36,-36l1532,0c19.869,0 36,16.131 36,36Z" style="fill:#dff2ff;stroke:#025985;stroke-width:4.17px;"/><g transform="matrix(2.082889,0,0,0.664921,1802.688962,777.008854)"><rect x="392" y="294" width="740.721" height="191" style="fill:#28fefd;fill-opacity:0;fill-rule:nonzero;"/><g transform="matrix(0.480102,0,0,1.503937,203.799833,-148.15748)"><text x="392px" y="335.65px" style="font-family:'HelveticaNeue', 'Helvetica Neue';font-size:58.333px;">physionet-data.mimiciv_3_1_hosp.pr<tspan x="1350.533px 1381.858px " y="335.65px 335.65px ">es</tspan>criptions</text><g transform="matrix(58.333333,0,0,58.333333,1903.866667,393.983333)"></g><text x="392px" y="393.983px" style="font-family:'HelveticaNeue', 'Helvetica Neue';font-size:58.333px;">• <tspan x="467px " y="393.983px ">i</tspan>npatient ACEi / ARB or<tspan x="1074.133px 1108.725px " y="393.983px 393.983px ">de</tspan>rs befor<tspan x="1339.9px 1371.225px " y="393.983px 393.983px ">e </tspan>or at ICU admission</text></g></g></g><path d="M1241.76,147.002l0,82c0,22.629 -18.371,41 -41,41l-1062,0c-22.629,0 -41,-18.371 -41,-41l0,-82c0,-22.629 18.371,-41 41,-41l1062,0c22.629,0 41,18.371 41,41Z" style="fill:#dff2ff;stroke:#025985;stroke-width:4.17px;"/><path d="M3007.698,148.752l0,85.5c0,23.594 -19.156,42.75 -42.75,42.75l-1493.5,0c-23.594,0 -42.75,-19.156 -42.75,-42.75l0,-85.5c0,-23.594 19.156,-42.75 42.75,-42.75l1493.5,0c23.594,0 42.75,19.156 42.75,42.75Z" style="fill:#dff2ff;stroke:#025985;stroke-width:4.17px;"/><path d="M4323.11,500.213l0,73c0,20.145 -16.355,36.5 -36.5,36.5l-916,0c-20.145,0 -36.5,-16.355 -36.5,-36.5l0,-73c0,-20.145 16.355,-36.5 36.5,-36.5l916,0c20.145,0 36.5,16.355 36.5,36.5Z" style="fill:#dff2ff;stroke:#025985;stroke-width:4.17px;"/><path d="M1109.478,483.305l-31.25,62.5l-31.25,-62.5c15.625,15.625 46.875,15.625 62.5,0Z"/><path d="M1078.228,419.793l0,76.012" style="fill:none;stroke:#000;stroke-width:20.83px;"/><path d="M610.26,306.805l0,2708.909" style="fill:none;stroke:#000;stroke-width:20.83px;"/><path d="M1852.282,306.805c-0,-5.749 4.668,-10.417 10.417,-10.417c5.749,-0 10.417,4.668 10.417,10.417l0,111.909c-0,5.749 -4.668,10.417 -10.417,10.417c-5.749,-0 -10.417,-4.668 -10.417,-10.417l0,-111.909Z"/><g><path d="M610.26,429.131c-5.749,0 -10.417,-4.668 -10.417,-10.417c-0,-5.749 4.668,-10.417 10.417,-10.417l1249.036,0c5.749,0 10.417,4.668 10.417,10.417c-0,5.749 -4.668,10.417 -10.417,10.417l-1249.036,0Z"/></g><path d="M1758.996,885.992l-31.25,62.5l-31.25,-62.5c15.625,15.625 46.875,15.625 62.5,0Z"/><path d="M1727.746,822.48l0,76.012" style="fill:none;stroke:#000;stroke-width:20.83px;"/><path d="M3903.013,2580.378l-31.25,62.5l-31.25,-62.5c15.625,15.625 46.875,15.625 62.5,0Z"/><path d="M3871.763,2516.866l0,76.012" style="fill:none;stroke:#000;stroke-width:20.83px;"/><path d="M3745.799,3089.043l-31.25,62.5l-31.25,-62.5c15.625,15.625 46.875,15.625 62.5,0Z"/><path d="M3714.549,3025.531l0,76.012" style="fill:none;stroke:#000;stroke-width:20.83px;"/><path d="M1078.228,709.492l0,111.909" style="fill:none;stroke:#000;stroke-width:20.83px;"/><path d="M3268.989,2357.957l0,158.909" style="fill:none;stroke:#000;stroke-width:20.83px;"/><path d="M3871.763,2901.471l0,106.909" style="fill:none;stroke:#000;stroke-width:20.83px;"/><path d="M5364.915,2816.471l0,191.909" style="fill:none;stroke:#000;stroke-width:20.83px;"/><path d="M6824.353,2827.471l0,180.909" style="fill:none;stroke:#000;stroke-width:20.83px;"/><path d="M4761.496,2380.957l0,135.909" style="fill:none;stroke:#000;stroke-width:20.83px;"/><path d="M2380.249,707.347l0,111.909" style="fill:none;stroke:#000;stroke-width:20.83px;"/><g><path d="M1078.228,821.401l1299.036,0" style="fill:none;stroke:#000;stroke-width:20.83px;"/></g><g><path d="M3273.745,2516.866l1484.036,0" style="fill:none;stroke:#000;stroke-width:20.83px;"/></g><g><path d="M613.03,3021.493l6203.036,-13.129" style="fill:none;stroke:#000;stroke-width:20.83px;"/></g><path d="M2556.264,1237.345l0,1004.012" style="fill:none;stroke:#000;stroke-width:20.83px;"/><path d="M1727.746,1120.065l0,112.505" style="fill:none;stroke:#000;stroke-width:20.83px;"/><path d="M3388.383,1120.065l0,112.505" style="fill:none;stroke:#000;stroke-width:20.83px;"/><g><path d="M1727.746,1234.266l1657.036,0" style="fill:none;stroke:#000;stroke-width:20.83px;"/></g><g><path d="M3071.749,570.557l0,76.5c0,21.111 -17.139,38.25 -38.25,38.25l-1306.5,0c-21.111,0 -38.25,-17.139 -38.25,-38.25l0,-76.5c0,-21.111 17.139,-38.25 38.25,-38.25l1306.5,0c21.111,0 38.25,17.139 38.25,38.25Z" style="fill:#dff2ff;stroke:#025985;stroke-width:4.17px;"/><g transform="matrix(1.786915,0,0,0.685864,1012.021457,342.898267)"><rect x="392" y="294" width="740.721" height="191" style="fill:#28fefd;fill-opacity:0;fill-rule:nonzero;"/><g transform="matrix(0.559624,0,0,1.458015,172.627544,-134.656489)"><text x="392px" y="335.65px" style="font-family:'HelveticaNeue', 'Helvetica Neue';font-size:58.333px;">physionet-data.mimiciv_3_1_hosp.diagnoses_icd</text><g transform="matrix(58.333333,0,0,58.333333,648.533333,393.983333)"></g><g transform="matrix(58.333333,0,0,58.333333,665.8,393.983333)"></g><g transform="matrix(58.333333,0,0,58.333333,743.558333,393.983333)"></g><text x="392px" y="393.983px" style="font-family:'HelveticaNeue', 'Helvetica Neue';font-size:58.333px;">• <tspan x="467px " y="393.983px ">C</tspan>OPD ﬂag</text></g></g></g><path d="M2436.746,1002.315l0,76c0,20.973 -17.027,38 -38,38l-1342,0c-20.973,0 -38,-17.027 -38,-38l0,-76c0,-20.973 17.027,-38 38,-38l1342,0c20.973,0 38,17.027 38,38Z" style="fill:#dcfce7;stroke:#186534;stroke-width:4.17px;"/><g transform="matrix(1.784215,0,0,0.675393,367.530185,778.790997)"><rect x="392" y="294" width="740.721" height="191" style="fill:#28fefd;fill-opacity:0;fill-rule:nonzero;"/><g transform="matrix(0.56047,0,0,1.48062,172.295566,-141.302326)"><text x="392px" y="335.65px" style="font-family:'HelveticaNeue', 'Helvetica Neue';font-size:58.333px;">copd_raas.cohort_copd</text><g transform="matrix(58.333333,0,0,58.333333,965.05,393.983333)"></g><g transform="matrix(58.333333,0,0,58.333333,982.316667,393.983333)"></g><g transform="matrix(58.333333,0,0,58.333333,1575.45,393.983333)"></g><text x="392px" y="393.983px" style="font-family:'HelveticaNeue', 'Helvetica Neue';font-size:58.333px;">• <tspan x="467px " y="393.983px ">D</tspan>iagnosis-code-deﬁned ICU COPD cohort</text></g></g><g transform="matrix(2.008321,0,0,0.685864,695.454744,-72.475638)"><rect x="392" y="294" width="740.721" height="191" style="fill:#28fefd;fill-opacity:0;fill-rule:nonzero;"/><g transform="matrix(0.497928,0,0,1.458015,196.81209,-134.656489)"><text x="392px" y="335.65px" style="font-family:'HelveticaNeue', 'Helvetica Neue';font-size:58.333px;">physionet-data.mimiciv_3_1_hosp.patients</text><g transform="matrix(58.333333,0,0,58.333333,1798.516667,393.983333)"></g><text x="392px" y="393.983px" style="font-family:'HelveticaNeue', 'Helvetica Neue';font-size:58.333px;">• <tspan x="467px " y="393.983px ">p</tspan>atient-level sour<tspan x="916.458px 947.783px " y="393.983px 393.983px ">ce</tspan> (patient context + age support)</text></g></g><g transform="matrix(1.466957,0,0,0.685864,-449.025104,-72.475638)"><rect x="392" y="294" width="740.721" height="191" style="fill:#28fefd;fill-opacity:0;fill-rule:nonzero;"/><g transform="matrix(0.681683,0,0,1.458015,124.780157,-134.656489)"><text x="392px" y="335.65px" style="font-family:'HelveticaNeue', 'Helvetica Neue';font-size:58.333px;">physionet-data.mimiciv_3_1_icu.icustays</text><g transform="matrix(58.333333,0,0,58.333333,1077.458333,393.983333)"></g><text x="392px" y="393.983px" style="font-family:'HelveticaNeue', 'Helvetica Neue';font-size:58.333px;">• <tspan x="467px " y="393.983px ">b</tspan>ase ICU timing sour<tspan x="1014.808px 1046.133px " y="393.983px 393.983px ">ce</tspan></text></g></g><g transform="matrix(1.078147,0,0,0.685864,2385.982189,1225.24516)"><rect x="392" y="294" width="740.721" height="191" style="fill:#28fefd;fill-opacity:0;fill-rule:nonzero;"/><g transform="matrix(0.927518,0,0,1.458015,28.413131,-134.656489)"><text x="392px" y="335.65px" style="font-family:'HelveticaNeue', 'Helvetica Neue';font-size:58.333px;">copd_raas.cohort_copd_raas</text><g transform="matrix(58.333333,0,0,58.333333,1040.591667,393.983333)"></g><g transform="matrix(58.333333,0,0,58.333333,1057.858333,393.983333)"></g><g transform="matrix(58.333333,0,0,58.333333,1135.616667,393.983333)"></g><text x="392px" y="393.983px" style="font-family:'HelveticaNeue', 'Helvetica Neue';font-size:58.333px;">• <tspan x="467px " y="393.983px ">B</tspan>inary pr<tspan x="701.442px 732.767px " y="393.983px 393.983px ">e-</tspan>ICU RAAS ﬂag</text></g></g><g transform="matrix(1.375155,0,0,0.942408,2269.555139,1398.57804)"><rect x="392" y="294" width="740.721" height="191" style="fill:#28fefd;fill-opacity:0;fill-rule:nonzero;"/><g transform="matrix(0.727191,0,0,1.061111,106.941126,-17.966667)"><text x="392px" y="335.65px" style="font-family:'HelveticaNeue', 'Helvetica Neue';font-size:58.333px;">cohort_copd_with_raas</text><text x="392px" y="393.983px" style="font-family:'HelveticaNeue', 'Helvetica Neue';font-size:58.333px;">• <tspan x="467px " y="393.983px ">D</tspan>etailed exposur<tspan x="906.717px 938.042px " y="393.983px 393.983px ">e-</tspan>enhanced cohort</text><g transform="matrix(58.333333,0,0,58.333333,1248.141667,452.316667)"></g><text x="392px" y="452.317px" style="font-family:'HelveticaNeue', 'Helvetica Neue';font-size:58.333px;">• <tspan x="467px " y="452.317px ">A</tspan>CEi / ARB subgr<tspan x="929.35px 962.833px " y="452.317px 452.317px ">ou</tspan>p support</text></g></g><g transform="matrix(1.360304,0,0,0.638743,2275.376492,1766.977045)"><rect x="392" y="294" width="740.721" height="191" style="fill:#28fefd;fill-opacity:0;fill-rule:nonzero;"/><g transform="matrix(0.73513,0,0,1.565574,103.829149,-166.278689)"><text x="392px" y="335.65px" style="font-family:'HelveticaNeue', 'Helvetica Neue';font-size:58.333px;">copd_raas.cohort_copd_raas_detailed</text><g transform="matrix(58.333333,0,0,58.333333,1182.166667,393.983333)"></g><g transform="matrix(58.333333,0,0,58.333333,1199.433333,393.983333)"></g><g transform="matrix(58.333333,0,0,58.333333,1306.358333,393.983333)"></g><text x="392px" y="393.983px" style="font-family:'HelveticaNeue', 'Helvetica Neue';font-size:58.333px;">• <tspan x="467px " y="393.983px ">A</tspan>CEi / ARB / both / neither ﬂags</text></g></g><g transform="matrix(1.334653,0,0,0.685864,2285.431555,1974.24516)"><rect x="392" y="294" width="740.721" height="191" style="fill:#28fefd;fill-opacity:0;fill-rule:nonzero;"/><g transform="matrix(0.749258,0,0,1.458015,98.290801,-134.656489)"><text x="392px" y="335.65px" style="font-family:'HelveticaNeue', 'Helvetica Neue';font-size:58.333px;">copd_raas.cohort_copd_baseline</text><g transform="matrix(58.333333,0,0,58.333333,1357.633333,393.983333)"></g><text x="392px" y="393.983px" style="font-family:'HelveticaNeue', 'Helvetica Neue';font-size:58.333px;">• <tspan x="467px " y="393.983px ">B</tspan>aseline cohort + binary exposur<tspan x="1326.308px " y="393.983px ">e</tspan></text></g></g><g transform="matrix(1.996171,0,0,0.685864,3243.116763,1974.24516)"><rect x="392" y="294" width="740.721" height="191" style="fill:#28fefd;fill-opacity:0;fill-rule:nonzero;"/><g transform="matrix(0.500959,0,0,1.458015,195.624018,-134.656489)"><text x="392px" y="335.65px" style="font-family:'HelveticaNeue', 'Helvetica Neue';font-size:58.333px;">physionet-data.mimiciv_3_1_hosp.admissions</text><g transform="matrix(58.333333,0,0,58.333333,1708.216667,393.983333)"></g><g transform="matrix(58.333333,0,0,58.333333,1725.483333,393.983333)"></g><g transform="matrix(58.333333,0,0,58.333333,1803.241667,393.983333)"></g><text x="392px" y="393.983px" style="font-family:'HelveticaNeue', 'Helvetica Neue';font-size:58.333px;">• <tspan x="467px " y="393.983px ">a</tspan>dmission/dischar<tspan x="941.833px 975.317px " y="393.983px 393.983px ">ge</tspan> context + hospital_expir<tspan x="1647.725px 1679.05px " y="393.983px 393.983px ">e_</tspan>ﬂag</text></g></g><path d="M4334.414,697.511l0,74c0,20.421 -16.579,37 -37,37l-912,0c-20.421,0 -37,-16.579 -37,-37l0,-74c0,-20.421 16.579,-37 37,-37l912,0c20.421,0 37,16.579 37,37Z" style="fill:#dcfce7;stroke:#186534;stroke-width:4.17px;"/><path d="M2710.412,1461.775l62.5,31.25l-62.5,31.25c15.625,-15.625 15.625,-46.875 0,-62.5Z"/><path d="M2558.703,1493.025l164.209,0" style="fill:none;stroke:#000;stroke-width:20.83px;stroke-linejoin:bevel;"/><path d="M2710.412,1734.396l62.5,31.25l-62.5,31.25c15.625,-15.625 15.625,-46.875 0,-62.5Z"/><path d="M2556.703,1765.646l166.209,0" style="fill:none;stroke:#000;stroke-width:20.83px;stroke-linejoin:bevel;"/><path d="M2710.412,1984.518l62.5,31.25l-62.5,31.25c15.625,-15.625 15.625,-46.875 0,-62.5Z"/><path d="M2556.703,2015.768l166.209,0" style="fill:none;stroke:#000;stroke-width:20.83px;stroke-linejoin:bevel;"/><path d="M2709.473,2212.049l62.5,31.25l-62.5,31.25c15.625,-15.625 15.625,-46.875 0,-62.5Z"/><path d="M2556.764,2243.299l165.209,0" style="fill:none;stroke:#000;stroke-width:20.83px;stroke-linejoin:bevel;"/><g><path d="M6093.915,2685.902l0,69.843c0,19.274 -15.648,34.922 -34.922,34.922l-1388.157,0c-19.274,0 -34.922,-15.648 -34.922,-34.922l0,-69.843c0,-19.274 15.648,-34.922 34.922,-34.922l1388.157,0c19.274,0 34.922,15.648 34.922,34.922Z" style="fill:#dff2ff;stroke:#025985;stroke-width:4.17px;"/><g transform="matrix(1.867917,0,0,0.60733,3931.997392,2479.255223)"><rect x="392" y="294" width="740.721" height="191" style="fill:#28fefd;fill-opacity:0;fill-rule:nonzero;"/><g transform="matrix(0.535356,0,0,1.646552,182.140617,-190.086207)"><g transform="matrix(58.333333,0,0,58.333333,1361.266667,335.65)"></g><g transform="matrix(58.333333,0,0,58.333333,1378.533333,335.65)"></g><text x="392px" y="335.65px" style="font-family:'HelveticaNeue', 'Helvetica Neue';font-size:58.333px;">physionet-data.mimiciv_3_1_derived.ﬁrst_day_sofa</text><g transform="matrix(58.333333,0,0,58.333333,467,393.983333)"></g><g transform="matrix(58.333333,0,0,58.333333,484.266667,393.983333)"></g><g transform="matrix(58.333333,0,0,58.333333,1014.633333,393.983333)"></g><text x="392px" y="393.983px" style="font-family:'HelveticaNeue', 'Helvetica Neue';font-size:58.333px;">• <tspan x="467px " y="393.983px ">ﬁ</tspan>rst-day ICU severity</text></g></g></g><g><path d="M7470.638,2688.335l0,74.71c0,20.617 -16.738,37.355 -37.355,37.355l-1217.861,0c-20.617,0 -37.355,-16.738 -37.355,-37.355l0,-74.71c0,-20.617 16.738,-37.355 37.355,-37.355l1217.861,0c20.617,0 37.355,16.738 37.355,37.355Z" style="fill:#dff2ff;stroke:#025985;stroke-width:4.17px;"/><g transform="matrix(1.669462,0,0,0.670157,5554.935818,2460.784018)"><rect x="392" y="294" width="740.721" height="191" style="fill:#28fefd;fill-opacity:0;fill-rule:nonzero;"/><g transform="matrix(0.598995,0,0,1.492187,157.19385,-144.703125)"><text x="392px" y="335.65px" style="font-family:'HelveticaNeue', 'Helvetica Neue';font-size:58.333px;">physionet-data.mimiciv_3_1_derived.charlson</text><g transform="matrix(58.333333,0,0,58.333333,1578.191667,393.983333)"></g><text x="392px" y="393.983px" style="font-family:'HelveticaNeue', 'Helvetica Neue';font-size:58.333px;">• <tspan x="467px " y="393.983px ">C</tspan>harlson comorbidity index + components</text></g></g></g><g transform="matrix(2.203931,0,0,0.725275,2837.691703,410.398709)"><rect x="250" y="115" width="407" height="91" style="fill:#28fefd;fill-opacity:0;fill-rule:nonzero;"/><g transform="matrix(0.453735,0,0,1.378788,136.566332,-43.560606)"><g transform="matrix(62.5,0,0,62.5,1070.6875,159.625)"></g><text x="250px" y="159.625px" style="font-family:'HelveticaNeue', 'Helvetica Neue';font-size:62.5px;">Native MIMIC-IV sour<tspan x="848.438px 882px " y="159.625px 159.625px ">ce</tspan> table</text></g></g><g transform="matrix(7.299213,0,0,0.487395,-2525.888488,-500.946798)"><rect x="809" y="2479" width="127" height="119" style="fill:#28fefd;fill-opacity:0;fill-rule:nonzero;"/><g transform="matrix(0.137001,0,0,2.051724,698.166127,-2607.224138)"><g transform="matrix(62.5,0,0,62.5,1673.6875,2523.625)"></g><text x="809px" y="2523.625px" style="font-family:'HelveticaNeue', 'Helvetica Neue';font-size:62.5px;">Pr<tspan x="869.188px 905.063px " y="2523.625px 2523.625px ">oj</tspan>ect-cr<tspan x="1083.313px 1116.875px " y="2523.625px 2523.625px ">ea</tspan>ted BigQuery table</text></g></g><g><g><path d="M1523.205,574.57l0,72.475c0,20 -16.237,36.237 -36.237,36.237l-817.48,0c-20,0 -36.237,-16.237 -36.237,-36.237l0,-72.475c0,-20 16.237,-36.237 36.237,-36.237l817.48,0c20,0 36.237,16.237 36.237,36.237Z" style="fill:#dcfce7;stroke:#186534;stroke-width:4.17px;"/></g><g transform="matrix(1,0,0,1,255.97851,255.137174)"><text x="392px" y="335.65px" style="font-family:'HelveticaNeue', 'Helvetica Neue';font-size:58.333px;">copd_raas.cohort_icu</text><g transform="matrix(58.333333,0,0,58.333333,1175.691667,393.983333)"></g><text x="392px" y="393.983px" style="font-family:'HelveticaNeue', 'Helvetica Neue';font-size:58.333px;">• <tspan x="467px " y="393.983px ">B</tspan>ase adult ICU-stay cohort</text></g></g></svg>